<svg xmlns="http://www.w3.org/2000/svg" xmlns:xlink="http://www.w3.org/1999/xlink" width="1340" height="971.82"><rect width="1340" height="971.82" rx="5" ry="5" class="a"/><svg y="0%" x="0%"><circle cx="20" cy="20" r="6" fill="#ff5f58"/><circle cx="40" cy="20" r="6" fill="#ffbd2e"/><circle cx="60" cy="20" r="6" fill="#18c132"/></svg><svg height="911.82" viewBox="0 0 130 91.182" width="1300" x="15" xmlns="http://www.w3.org/2000/svg" xmlns:xlink="http://www.w3.org/1999/xlink" y="50"><style>.a{fill:#282d35}.f{fill:#2a2a37}.g{fill:#938aa9;white-space:pre}.h{fill:#2a2a2a}.i,.j{fill:#727169;white-space:pre}.j{fill:#dcd7ba}.k{fill:#1f1f28}.l{fill:#7e9cd8;font-weight:700;white-space:pre}.n{fill:#16161d}.o{fill:#54546d;white-space:pre}.q{fill:#252535}.r,.t{fill:#c8c093;white-space:pre}.t{fill:#957fb8}.u{fill:#2b3328}.v,.w{fill:#ffa066;white-space:pre}.w{fill:#1f1f28}</style><g font-family="Monaco,Consolas,Menlo,'Bitstream Vera Sans Mono','Powerline Symbols',monospace" font-size="1.67"><defs><symbol id="1"><path class="f" d="M0 0h2v2.171H0z"/><text y="1.67" class="g"></text><path class="h" d="M2.004 0h6v2.171h-6z"/><text x="2.004" y="1.67" class="i">· Idle</text><path class="h" d="M8.016 0h122v2.171h-122z"/><text x="8.016" y="1.67" class="j"></text></symbol><symbol id="2"><path class="f" d="M0 0h2v2.171H0z"/><text y="1.67" class="g"></text><path class="k" d="M2.004 0h5v2.171h-5z"/><text x="2.004" y="1.67" class="l">Head:</text><path class="k" d="M7.014 0h5v2.171h-5z"/><text x="7.014" y="1.67" class="j"></text><path class="k" d="M12.024 0h4v2.171h-4z"/><text x="12.024" y="1.67" style="white-space:pre" fill="#c34043">main</text><path class="k" d="M16.032 0h2v2.171h-2z"/><text x="16.032" y="1.67" class="j"></text><path class="k" d="M18.036 0h28v2.171h-28z"/><text x="18.036" y="1.67" class="i">Update App component on main</text><path class="k" d="M46.092 0h84v2.171h-84z"/><text x="46.092" y="1.67" class="j"></text></symbol><symbol id="3"><path class="f" d="M0 0h2v2.171H0z"/><text y="1.67" class="g"></text><path class="k" d="M2.004 0h128v2.171h-128z"/><text x="2.004" y="1.67" class="j"></text></symbol><symbol id="4"><path class="f" d="M0 0h2v2.171H0z"/><text y="1.67" class="i">v</text><path class="k" d="M2.004 0h13v2.171h-13z"/><text x="2.004" y="1.67" class="l">Untracked (4)</text><path class="k" d="M15.03 0h115v2.171h-115z"/><text x="15.03" y="1.67" class="j"></text></symbol><symbol id="5"><path class="f" d="M0 0h2v2.171H0z"/><text y="1.67" class="i">&gt;</text><path class="k" d="M2.004 0h128v2.171h-128z"/><text x="2.004" y="1.67" class="j">? assets/new-image.bin</text></symbol><symbol id="6"><path class="f" d="M0 0h2v2.171H0z"/><text y="1.67" class="i">&gt;</text><path class="k" d="M2.004 0h128v2.171h-128z"/><text x="2.004" y="1.67" class="j">? notes.txt</text></symbol><symbol id="7"><path class="f" d="M0 0h2v2.171H0z"/><text y="1.67" class="i">&gt;</text><path class="k" d="M2.004 0h128v2.171h-128z"/><text x="2.004" y="1.67" class="j">? src/components/Dropdown.js</text></symbol><symbol id="8"><path class="f" d="M0 0h2v2.171H0z"/><text y="1.67" class="i">&gt;</text><path class="k" d="M2.004 0h128v2.171h-128z"/><text x="2.004" y="1.67" class="j">? src/utils/cache.js</text></symbol><symbol id="9"><path class="f" d="M0 0h2v2.171H0z"/><text y="1.67" class="i">v</text><path class="k" d="M2.004 0h12v2.171h-12z"/><text x="2.004" y="1.67" class="l">Unstaged (5)</text><path class="k" d="M14.028 0h17v2.171h-17z"/><text x="14.028" y="1.67" class="j"></text><path class="n" d="M31.062 0h31v2.171h-31z"/><text x="31.062" y="1.67" class="o">╭──────────────────────────────</text><path class="n" d="M62.124 0h6v2.171h-6z"/><text x="62.124" y="1.67" style="white-space:pre" fill="#938aa9" font-weight="700">Help</text><path class="n" d="M68.136 0h32v2.171h-32z"/><text x="68.136" y="1.67" class="o">───────────────────────────────╮</text><path class="k" d="M100.2 0h30v2.171h-30z"/><text x="100.2" y="1.67" class="j"></text></symbol><symbol id="10"><path class="f" d="M0 0h2v2.171H0z"/><text y="1.67" class="i">&gt;</text><path class="k" d="M2.004 0h2v2.171h-2z"/><text x="2.004" y="1.67" class="j">○</text><path class="q" d="M4.008 0h1v2.171h-1z"/><text x="4.008" y="1.67" class="j">M</text><path class="k" d="M5.01 0h26v2.171h-26z"/><text x="5.01" y="1.67" class="j">README.md</text><path class="n" d="M31.062 0h1v2.171h-1z"/><text x="31.062" y="1.67" class="o">│</text><path class="n" d="M32.064 0h18v2.171h-18z"/><text x="32.064" y="1.67" class="l">Transient commands</text><path class="n" d="M50.1 0h49v2.171h-49z"/><text x="50.1" y="1.67" class="r"></text><path class="n" d="M99.198 0h1v2.171h-1z"/><text x="99.198" y="1.67" class="o">│</text><path class="k" d="M100.2 0h30v2.171h-30z"/><text x="100.2" y="1.67" class="j"></text></symbol><symbol id="11"><path class="f" d="M0 0h2v2.171H0z"/><text y="1.67" class="i">&gt;</text><path class="k" d="M2.004 0h2v2.171h-2z"/><text x="2.004" y="1.67" class="j">○</text><path class="q" d="M4.008 0h1v2.171h-1z"/><text x="4.008" y="1.67" class="j">M</text><path class="k" d="M5.01 0h1v2.171h-1z"/><text x="5.01" y="1.67" class="j"></text><path class="k" d="M6.012 0h3v2.171h-3z"/><text x="6.012" y="1.67" style="white-space:pre" fill="#7e9cd8">lib</text><path class="k" d="M9.018 0h22v2.171h-22z"/><text x="9.018" y="1.67" class="j"></text><path class="n" d="M31.062 0h1v2.171h-1z"/><text x="31.062" y="1.67" class="o">│</text><path class="n" d="M32.064 0h1v2.171h-1z"/><text x="32.064" y="1.67" class="r"></text><path class="n" d="M33.066 0h1v2.171h-1z"/><text x="33.066" y="1.67" class="t">c</text><path class="n" d="M34.068 0h16v2.171h-16z"/><text x="34.068" y="1.67" class="r">Commit</text><path class="n" d="M50.1 0h1v2.171h-1z"/><text x="50.1" y="1.67" class="t">b</text><path class="n" d="M51.102 0h16v2.171h-16z"/><text x="51.102" y="1.67" class="r">Branch</text><path class="n" d="M67.134 0h1v2.171h-1z"/><text x="67.134" y="1.67" class="t">l</text><path class="n" d="M68.136 0h31v2.171h-31z"/><text x="68.136" y="1.67" class="r">Log</text><path class="n" d="M99.198 0h1v2.171h-1z"/><text x="99.198" y="1.67" class="o">│</text><path class="k" d="M100.2 0h30v2.171h-30z"/><text x="100.2" y="1.67" class="j"></text></symbol><symbol id="12"><path class="f" d="M0 0h2v2.171H0z"/><text y="1.67" class="i">&gt;</text><path class="k" d="M2.004 0h2v2.171h-2z"/><text x="2.004" y="1.67" class="j">○</text><path class="q" d="M4.008 0h1v2.171h-1z"/><text x="4.008" y="1.67" class="j">M</text><path class="k" d="M5.01 0h26v2.171h-26z"/><text x="5.01" y="1.67" class="j">src/components/Button.js</text><path class="n" d="M31.062 0h1v2.171h-1z"/><text x="31.062" y="1.67" class="o">│</text><path class="n" d="M32.064 0h1v2.171h-1z"/><text x="32.064" y="1.67" class="r"></text><path class="n" d="M33.066 0h1v2.171h-1z"/><text x="33.066" y="1.67" class="t">p</text><path class="n" d="M34.068 0h16v2.171h-16z"/><text x="34.068" y="1.67" class="r">Push</text><path class="n" d="M50.1 0h1v2.171h-1z"/><text x="50.1" y="1.67" class="t">F</text><path class="n" d="M51.102 0h16v2.171h-16z"/><text x="51.102" y="1.67" class="r">Pull</text><path class="n" d="M67.134 0h1v2.171h-1z"/><text x="67.134" y="1.67" class="t">f</text><path class="n" d="M68.136 0h31v2.171h-31z"/><text x="68.136" y="1.67" class="r">Fetch</text><path class="n" d="M99.198 0h1v2.171h-1z"/><text x="99.198" y="1.67" class="o">│</text><path class="k" d="M100.2 0h30v2.171h-30z"/><text x="100.2" y="1.67" class="j"></text></symbol><symbol id="13"><path class="f" d="M0 0h2v2.171H0z"/><text y="1.67" class="i">&gt;</text><path class="k" d="M2.004 0h2v2.171h-2z"/><text x="2.004" y="1.67" class="j">○</text><path class="q" d="M4.008 0h1v2.171h-1z"/><text x="4.008" y="1.67" class="j">M</text><path class="k" d="M5.01 0h26v2.171h-26z"/><text x="5.01" y="1.67" class="j">src/config.js</text><path class="n" d="M31.062 0h1v2.171h-1z"/><text x="31.062" y="1.67" class="o">│</text><path class="n" d="M32.064 0h1v2.171h-1z"/><text x="32.064" y="1.67" class="r"></text><path class="n" d="M33.066 0h1v2.171h-1z"/><text x="33.066" y="1.67" class="t">d</text><path class="n" d="M34.068 0h16v2.171h-16z"/><text x="34.068" y="1.67" class="r">Diff</text><path class="n" d="M50.1 0h1v2.171h-1z"/><text x="50.1" y="1.67" class="t">r</text><path class="n" d="M51.102 0h16v2.171h-16z"/><text x="51.102" y="1.67" class="r">Rebase</text><path class="n" d="M67.134 0h1v2.171h-1z"/><text x="67.134" y="1.67" class="t">m</text><path class="n" d="M68.136 0h31v2.171h-31z"/><text x="68.136" y="1.67" class="r">Merge</text><path class="n" d="M99.198 0h1v2.171h-1z"/><text x="99.198" y="1.67" class="o">│</text><path class="k" d="M100.2 0h30v2.171h-30z"/><text x="100.2" y="1.67" class="j"></text></symbol><symbol id="14"><path class="f" d="M0 0h2v2.171H0z"/><text y="1.67" class="i">&gt;</text><path class="k" d="M2.004 0h2v2.171h-2z"/><text x="2.004" y="1.67" class="j">○</text><path class="q" d="M4.008 0h1v2.171h-1z"/><text x="4.008" y="1.67" class="j">M</text><path class="k" d="M5.01 0h26v2.171h-26z"/><text x="5.01" y="1.67" class="j">src/utils/helpers.js</text><path class="n" d="M31.062 0h1v2.171h-1z"/><text x="31.062" y="1.67" class="o">│</text><path class="n" d="M32.064 0h1v2.171h-1z"/><text x="32.064" y="1.67" class="r"></text><path class="n" d="M33.066 0h1v2.171h-1z"/><text x="33.066" y="1.67" class="t">z</text><path class="n" d="M34.068 0h16v2.171h-16z"/><text x="34.068" y="1.67" class="r">Stash</text><path class="n" d="M50.1 0h1v2.171h-1z"/><text x="50.1" y="1.67" class="t">A</text><path class="n" d="M51.102 0h16v2.171h-16z"/><text x="51.102" y="1.67" class="r">Cherry-pick</text><path class="n" d="M67.134 0h1v2.171h-1z"/><text x="67.134" y="1.67" class="t">_</text><path class="n" d="M68.136 0h31v2.171h-31z"/><text x="68.136" y="1.67" class="r">Revert</text><path class="n" d="M99.198 0h1v2.171h-1z"/><text x="99.198" y="1.67" class="o">│</text><path class="k" d="M100.2 0h30v2.171h-30z"/><text x="100.2" y="1.67" class="j"></text></symbol><symbol id="15"><path class="f" d="M0 0h2v2.171H0z"/><text y="1.67" class="g"></text><path class="k" d="M2.004 0h29v2.171h-29z"/><text x="2.004" y="1.67" class="j"></text><path class="n" d="M31.062 0h1v2.171h-1z"/><text x="31.062" y="1.67" class="o">│</text><path class="n" d="M32.064 0h1v2.171h-1z"/><text x="32.064" y="1.67" class="r"></text><path class="n" d="M33.066 0h1v2.171h-1z"/><text x="33.066" y="1.67" class="t">X</text><path class="n" d="M34.068 0h16v2.171h-16z"/><text x="34.068" y="1.67" class="r">Reset</text><path class="n" d="M50.1 0h1v2.171h-1z"/><text x="50.1" y="1.67" class="t">&apos;</text><path class="n" d="M51.102 0h16v2.171h-16z"/><text x="51.102" y="1.67" class="r">Submodule</text><path class="n" d="M67.134 0h1v2.171h-1z"/><text x="67.134" y="1.67" class="t">Z</text><path class="n" d="M68.136 0h31v2.171h-31z"/><text x="68.136" y="1.67" class="r">Worktree</text><path class="n" d="M99.198 0h1v2.171h-1z"/><text x="99.198" y="1.67" class="o">│</text><path class="k" d="M100.2 0h30v2.171h-30z"/><text x="100.2" y="1.67" class="j"></text></symbol><symbol id="16"><path class="f" d="M0 0h2v2.171H0z"/><text y="1.67" class="i">v</text><path class="k" d="M2.004 0h10v2.171h-10z"/><text x="2.004" y="1.67" class="l">Staged (3)</text><path class="k" d="M12.024 0h19v2.171h-19z"/><text x="12.024" y="1.67" class="j"></text><path class="n" d="M31.062 0h1v2.171h-1z"/><text x="31.062" y="1.67" class="o">│</text><path class="n" d="M32.064 0h1v2.171h-1z"/><text x="32.064" y="1.67" class="r"></text><path class="n" d="M33.066 0h1v2.171h-1z"/><text x="33.066" y="1.67" class="t">M</text><path class="n" d="M34.068 0h16v2.171h-16z"/><text x="34.068" y="1.67" class="r">Remotes</text><path class="n" d="M50.1 0h1v2.171h-1z"/><text x="50.1" y="1.67" class="t">W</text><path class="n" d="M51.102 0h16v2.171h-16z"/><text x="51.102" y="1.67" class="r">Patch</text><path class="n" d="M67.134 0h1v2.171h-1z"/><text x="67.134" y="1.67" class="t">w</text><path class="n" d="M68.136 0h31v2.171h-31z"/><text x="68.136" y="1.67" class="r">Apply patches</text><path class="n" d="M99.198 0h1v2.171h-1z"/><text x="99.198" y="1.67" class="o">│</text><path class="k" d="M100.2 0h30v2.171h-30z"/><text x="100.2" y="1.67" class="j"></text></symbol><symbol id="17"><path class="f" d="M0 0h2v2.171H0z"/><text y="1.67" class="i">&gt;</text><path class="u" d="M2.004 0h1v2.171h-1z"/><text x="2.004" y="1.67" class="j">●</text><path class="k" d="M3.006 0h1v2.171h-1z"/><text x="3.006" y="1.67" class="j"></text><path class="q" d="M4.008 0h1v2.171h-1z"/><text x="4.008" y="1.67" class="j">R</text><path class="k" d="M5.01 0h26v2.171h-26z"/><text x="5.01" y="1.67" class="j">docs/{API.md =&gt; API-REFER</text><path class="n" d="M31.062 0h1v2.171h-1z"/><text x="31.062" y="1.67" class="o">│</text><path class="n" d="M32.064 0h1v2.171h-1z"/><text x="32.064" y="1.67" class="r"></text><path class="n" d="M33.066 0h2v2.171h-2z"/><text x="33.066" y="1.67" class="t">yr</text><path class="n" d="M35.07 0h64v2.171h-64z"/><text x="35.07" y="1.67" class="r">References</text><path class="n" d="M99.198 0h1v2.171h-1z"/><text x="99.198" y="1.67" class="o">│</text><path class="k" d="M100.2 0h30v2.171h-30z"/><text x="100.2" y="1.67" class="j"></text></symbol><symbol id="18"><path class="f" d="M0 0h2v2.171H0z"/><text y="1.67" class="i">&gt;</text><path class="u" d="M2.004 0h1v2.171h-1z"/><text x="2.004" y="1.67" class="j">●</text><path class="k" d="M3.006 0h1v2.171h-1z"/><text x="3.006" y="1.67" class="j"></text><path class="u" d="M4.008 0h1v2.171h-1z"/><text x="4.008" y="1.67" class="j">A</text><path class="k" d="M5.01 0h26v2.171h-26z"/><text x="5.01" y="1.67" class="j">src/components/Card.js</text><path class="n" d="M31.062 0h1v2.171h-1z"/><text x="31.062" y="1.67" class="o">│</text><path class="n" d="M32.064 0h67v2.171h-67z"/><text x="32.064" y="1.67" class="r"></text><path class="n" d="M99.198 0h1v2.171h-1z"/><text x="99.198" y="1.67" class="o">│</text><path class="k" d="M100.2 0h30v2.171h-30z"/><text x="100.2" y="1.67" class="j"></text></symbol><symbol id="19"><path class="f" d="M0 0h2v2.171H0z"/><text y="1.67" class="i">&gt;</text><path class="u" d="M2.004 0h1v2.171h-1z"/><text x="2.004" y="1.67" class="j">●</text><path class="k" d="M3.006 0h1v2.171h-1z"/><text x="3.006" y="1.67" class="j"></text><path class="u" d="M4.008 0h1v2.171h-1z"/><text x="4.008" y="1.67" class="j">A</text><path class="k" d="M5.01 0h26v2.171h-26z"/><text x="5.01" y="1.67" class="j">src/utils/validator.js</text><path class="n" d="M31.062 0h1v2.171h-1z"/><text x="31.062" y="1.67" class="o">│</text><path class="n" d="M32.064 0h16v2.171h-16z"/><text x="32.064" y="1.67" class="l">Applying changes</text><path class="n" d="M48.096 0h51v2.171h-51z"/><text x="48.096" y="1.67" class="r"></text><path class="n" d="M99.198 0h1v2.171h-1z"/><text x="99.198" y="1.67" class="o">│</text><path class="k" d="M100.2 0h30v2.171h-30z"/><text x="100.2" y="1.67" class="j"></text></symbol><symbol id="20"><path class="f" d="M0 0h2v2.171H0z"/><text y="1.67" class="g"></text><path class="k" d="M2.004 0h29v2.171h-29z"/><text x="2.004" y="1.67" class="j"></text><path class="n" d="M31.062 0h1v2.171h-1z"/><text x="31.062" y="1.67" class="o">│</text><path class="n" d="M32.064 0h1v2.171h-1z"/><text x="32.064" y="1.67" class="r"></text><path class="n" d="M33.066 0h1v2.171h-1z"/><text x="33.066" y="1.67" class="t">s</text><path class="n" d="M34.068 0h17v2.171h-17z"/><text x="34.068" y="1.67" class="r">Stage</text><path class="n" d="M51.102 0h1v2.171h-1z"/><text x="51.102" y="1.67" class="t">u</text><path class="n" d="M52.104 0h17v2.171h-17z"/><text x="52.104" y="1.67" class="r">Unstage</text><path class="n" d="M69.138 0h2v2.171h-2z"/><text x="69.138" y="1.67" class="t">gs</text><path class="n" d="M71.142 0h28v2.171h-28z"/><text x="71.142" y="1.67" class="r">Intent to add</text><path class="n" d="M99.198 0h1v2.171h-1z"/><text x="99.198" y="1.67" class="o">│</text><path class="k" d="M100.2 0h30v2.171h-30z"/><text x="100.2" y="1.67" class="j"></text></symbol><symbol id="21"><path class="f" d="M0 0h2v2.171H0z"/><text y="1.67" class="g"></text><path class="k" d="M2.004 0h7v2.171h-7z"/><text x="2.004" y="1.67" class="v">8c0a80e</text><path class="k" d="M9.018 0h1v2.171h-1z"/><text x="9.018" y="1.67" class="j"></text><path class="k" d="M10.02 0h44v2.171h-44z"/><text x="10.02" y="1.67" class="i">Add binary assets: logo, icon, and data file</text><path class="k" d="M54.108 0h76v2.171h-76z"/><text x="54.108" y="1.67" class="j"></text></symbol><symbol id="22"><path class="f" d="M0 0h2v2.171H0z"/><text y="1.67" class="g"></text><path class="k" d="M2.004 0h7v2.171h-7z"/><text x="2.004" y="1.67" class="v">1a9fb62</text><path class="k" d="M9.018 0h1v2.171h-1z"/><text x="9.018" y="1.67" class="j"></text><path class="k" d="M10.02 0h39v2.171h-39z"/><text x="10.02" y="1.67" class="i">Add UI components: Button, Input, Modal</text><path class="k" d="M49.098 0h81v2.171h-81z"/><text x="49.098" y="1.67" class="j"></text></symbol><symbol id="23"><path class="f" d="M0 0h2v2.171H0z"/><text y="1.67" class="g"></text><path class="k" d="M2.004 0h7v2.171h-7z"/><text x="2.004" y="1.67" class="v">85ab353</text><path class="k" d="M9.018 0h1v2.171h-1z"/><text x="9.018" y="1.67" class="j"></text><path class="k" d="M10.02 0h43v2.171h-43z"/><text x="10.02" y="1.67" class="i">Add configuration module and logger utility</text><path class="k" d="M53.106 0h77v2.171h-77z"/><text x="53.106" y="1.67" class="j"></text></symbol><symbol id="24"><path class="f" d="M0 0h2v2.171H0z"/><text y="1.67" class="g"></text><path class="k" d="M2.004 0h7v2.171h-7z"/><text x="2.004" y="1.67" class="v">01fafa1</text><path class="k" d="M9.018 0h1v2.171h-1z"/><text x="9.018" y="1.67" class="j"></text><path class="k" d="M10.02 0h42v2.171h-42z"/><text x="10.02" y="1.67" class="i">Initial project setup with basic structure</text><path class="k" d="M52.104 0h78v2.171h-78z"/><text x="52.104" y="1.67" class="j"></text></symbol><symbol id="25"><path class="f" d="M0 0h2v2.171H0z"/><text y="1.67" class="g"></text><path class="k" d="M2.004 0h16v2.171h-16z"/><text x="2.004" y="1.67" class="i">Press ? for help</text><path class="k" d="M18.036 0h112v2.171h-112z"/><text x="18.036" y="1.67" class="j"></text></symbol><symbol id="26"><path class="k" d="M0 0h130v2.171H0z"/><text y="1.67" class="w">~</text></symbol><symbol id="27"><path class="n" d="M0 0h130v2.171H0z"/><text y="1.67" class="o">gitlad://status[/private/tmp/gitlad-demo-repo/]</text></symbol><symbol id="28"><path class="k" d="M0 0h130v2.171H0z"/><text y="1.67" class="r">:Gitlad</text></symbol><symbol id="29"><path class="f" d="M0 0h2v2.171H0z"/><text y="1.67" class="i">v</text><path class="k" d="M2.004 0h18v2.171h-18z"/><text x="2.004" y="1.67" class="l">Recent commits (8)</text><path class="k" d="M20.04 0h11v2.171h-11z"/><text x="20.04" y="1.67" class="j"></text><path class="n" d="M31.062 0h1v2.171h-1z"/><text x="31.062" y="1.67" class="o">│</text><path class="n" d="M32.064 0h1v2.171h-1z"/><text x="32.064" y="1.67" class="r"></text><path class="n" d="M33.066 0h1v2.171h-1z"/><text x="33.066" y="1.67" class="t">S</text><path class="n" d="M34.068 0h17v2.171h-17z"/><text x="34.068" y="1.67" class="r">Stage all</text><path class="n" d="M51.102 0h1v2.171h-1z"/><text x="51.102" y="1.67" class="t">x</text><path class="n" d="M52.104 0h17v2.171h-17z"/><text x="52.104" y="1.67" class="r">Discard</text><path class="n" d="M69.138 0h1v2.171h-1z"/><text x="69.138" y="1.67" class="t">U</text><path class="n" d="M70.14 0h29v2.171h-29z"/><text x="70.14" y="1.67" class="r">Unstage all</text><path class="n" d="M99.198 0h1v2.171h-1z"/><text x="99.198" y="1.67" class="o">│</text><path class="k" d="M100.2 0h30v2.171h-30z"/><text x="100.2" y="1.67" class="j"></text></symbol><symbol id="30"><path class="f" d="M0 0h2v2.171H0z"/><text y="1.67" class="g"></text><path class="k" d="M2.004 0h7v2.171h-7z"/><text x="2.004" y="1.67" class="v">bd2dbcb</text><path class="k" d="M9.018 0h1v2.171h-1z"/><text x="9.018" y="1.67" class="j"></text><path class="k" d="M10.02 0h21v2.171h-21z"/><text x="10.02" y="1.67" class="i">Update App component</text><path class="n" d="M31.062 0h1v2.171h-1z"/><text x="31.062" y="1.67" class="o">│</text><path class="n" d="M32.064 0h67v2.171h-67z"/><text x="32.064" y="1.67" class="r"></text><path class="n" d="M99.198 0h1v2.171h-1z"/><text x="99.198" y="1.67" class="o">│</text><path class="k" d="M100.2 0h30v2.171h-30z"/><text x="100.2" y="1.67" class="j"></text></symbol><symbol id="31"><path class="f" d="M0 0h2v2.171H0z"/><text y="1.67" class="g"></text><path class="k" d="M2.004 0h7v2.171h-7z"/><text x="2.004" y="1.67" class="v">d93b93f</text><path class="k" d="M9.018 0h1v2.171h-1z"/><text x="9.018" y="1.67" class="j"></text><path class="k" d="M10.02 0h21v2.171h-21z"/><text x="10.02" y="1.67" class="i">Add shared library as</text><path class="n" d="M31.062 0h1v2.171h-1z"/><text x="31.062" y="1.67" class="o">│</text><path class="n" d="M32.064 0h10v2.171h-10z"/><text x="32.064" y="1.67" class="l">Navigation</text><path class="n" d="M42.084 0h57v2.171h-57z"/><text x="42.084" y="1.67" class="r"></text><path class="n" d="M99.198 0h1v2.171h-1z"/><text x="99.198" y="1.67" class="o">│</text><path class="k" d="M100.2 0h30v2.171h-30z"/><text x="100.2" y="1.67" class="j"></text></symbol><symbol id="32"><path class="f" d="M0 0h2v2.171H0z"/><text y="1.67" class="g"></text><path class="k" d="M2.004 0h7v2.171h-7z"/><text x="2.004" y="1.67" class="v">600847b</text><path class="k" d="M9.018 0h1v2.171h-1z"/><text x="9.018" y="1.67" class="j"></text><path class="k" d="M10.02 0h21v2.171h-21z"/><text x="10.02" y="1.67" class="i">Add component tests a</text><path class="n" d="M31.062 0h1v2.171h-1z"/><text x="31.062" y="1.67" class="o">│</text><path class="n" d="M32.064 0h1v2.171h-1z"/><text x="32.064" y="1.67" class="r"></text><path class="n" d="M33.066 0h1v2.171h-1z"/><text x="33.066" y="1.67" class="t">j</text><path class="n" d="M34.068 0h21v2.171h-21z"/><text x="34.068" y="1.67" class="r">Next item</text><path class="n" d="M55.11 0h1v2.171h-1z"/><text x="55.11" y="1.67" class="t">k</text><path class="n" d="M56.112 0h21v2.171h-21z"/><text x="56.112" y="1.67" class="r">Previous item</text><path class="n" d="M77.154 0h2v2.171h-2z"/><text x="77.154" y="1.67" class="t">gj</text><path class="n" d="M79.158 0h20v2.171h-20z"/><text x="79.158" y="1.67" class="r">Next section</text><path class="n" d="M99.198 0h1v2.171h-1z"/><text x="99.198" y="1.67" class="o">│</text><path class="k" d="M100.2 0h30v2.171h-30z"/><text x="100.2" y="1.67" class="j"></text></symbol><symbol id="33"><path class="f" d="M0 0h2v2.171H0z"/><text y="1.67" class="g"></text><path class="k" d="M2.004 0h7v2.171h-7z"/><text x="2.004" y="1.67" class="v">37cf2c5</text><path class="k" d="M9.018 0h1v2.171h-1z"/><text x="9.018" y="1.67" class="j"></text><path class="k" d="M10.02 0h21v2.171h-21z"/><text x="10.02" y="1.67" class="i">Add Python utility sc</text><path class="n" d="M31.062 0h1v2.171h-1z"/><text x="31.062" y="1.67" class="o">│</text><path class="n" d="M32.064 0h1v2.171h-1z"/><text x="32.064" y="1.67" class="r"></text><path class="n" d="M33.066 0h2v2.171h-2z"/><text x="33.066" y="1.67" class="t">gk</text><path class="n" d="M35.07 0h20v2.171h-20z"/><text x="35.07" y="1.67" class="r">Previous section</text><path class="n" d="M55.11 0h5v2.171h-5z"/><text x="55.11" y="1.67" class="t">&lt;Tab&gt;</text><path class="n" d="M60.12 0h17v2.171h-17z"/><text x="60.12" y="1.67" class="r">Toggle section</text><path class="n" d="M77.154 0h7v2.171h-7z"/><text x="77.154" y="1.67" class="t">&lt;S-Tab&gt;</text><path class="n" d="M84.168 0h15v2.171h-15z"/><text x="84.168" y="1.67" class="r">Toggle all</text><path class="n" d="M99.198 0h1v2.171h-1z"/><text x="99.198" y="1.67" class="o">│</text><path class="k" d="M100.2 0h30v2.171h-30z"/><text x="100.2" y="1.67" class="j"></text></symbol><symbol id="34"><path class="f" d="M0 0h2v2.171H0z"/><text y="1.67" class="g"></text><path class="k" d="M2.004 0h7v2.171h-7z"/><text x="2.004" y="1.67" class="v">8c0a80e</text><path class="k" d="M9.018 0h1v2.171h-1z"/><text x="9.018" y="1.67" class="j"></text><path class="k" d="M10.02 0h21v2.171h-21z"/><text x="10.02" y="1.67" class="i">Add binary assets: lo</text><path class="n" d="M31.062 0h1v2.171h-1z"/><text x="31.062" y="1.67" class="o">│</text><path class="n" d="M32.064 0h1v2.171h-1z"/><text x="32.064" y="1.67" class="r"></text><path class="n" d="M33.066 0h1v2.171h-1z"/><text x="33.066" y="1.67" class="t">1</text><path class="n" d="M34.068 0h21v2.171h-21z"/><text x="34.068" y="1.67" class="r">Headers only</text><path class="n" d="M55.11 0h1v2.171h-1z"/><text x="55.11" y="1.67" class="t">2</text><path class="n" d="M56.112 0h21v2.171h-21z"/><text x="56.112" y="1.67" class="r">Show items</text><path class="n" d="M77.154 0h1v2.171h-1z"/><text x="77.154" y="1.67" class="t">3</text><path class="n" d="M78.156 0h21v2.171h-21z"/><text x="78.156" y="1.67" class="r">Show diffs</text><path class="n" d="M99.198 0h1v2.171h-1z"/><text x="99.198" y="1.67" class="o">│</text><path class="k" d="M100.2 0h30v2.171h-30z"/><text x="100.2" y="1.67" class="j"></text></symbol><symbol id="35"><path class="f" d="M0 0h2v2.171H0z"/><text y="1.67" class="g"></text><path class="k" d="M2.004 0h7v2.171h-7z"/><text x="2.004" y="1.67" class="v">1a9fb62</text><path class="k" d="M9.018 0h1v2.171h-1z"/><text x="9.018" y="1.67" class="j"></text><path class="k" d="M10.02 0h21v2.171h-21z"/><text x="10.02" y="1.67" class="i">Add UI components: Bu</text><path class="n" d="M31.062 0h1v2.171h-1z"/><text x="31.062" y="1.67" class="o">│</text><path class="n" d="M32.064 0h1v2.171h-1z"/><text x="32.064" y="1.67" class="r"></text><path class="n" d="M33.066 0h1v2.171h-1z"/><text x="33.066" y="1.67" class="t">4</text><path class="n" d="M34.068 0h21v2.171h-21z"/><text x="34.068" y="1.67" class="r">Show all</text><path class="n" d="M55.11 0h4v2.171h-4z"/><text x="55.11" y="1.67" class="t">&lt;CR&gt;</text><path class="n" d="M59.118 0h18v2.171h-18z"/><text x="59.118" y="1.67" class="r">Visit file</text><path class="n" d="M77.154 0h1v2.171h-1z"/><text x="77.154" y="1.67" class="t">e</text><path class="n" d="M78.156 0h21v2.171h-21z"/><text x="78.156" y="1.67" class="r">Edit file</text><path class="n" d="M99.198 0h1v2.171h-1z"/><text x="99.198" y="1.67" class="o">│</text><path class="k" d="M100.2 0h30v2.171h-30z"/><text x="100.2" y="1.67" class="j"></text></symbol><symbol id="36"><path class="f" d="M0 0h2v2.171H0z"/><text y="1.67" class="g"></text><path class="k" d="M2.004 0h7v2.171h-7z"/><text x="2.004" y="1.67" class="v">85ab353</text><path class="k" d="M9.018 0h1v2.171h-1z"/><text x="9.018" y="1.67" class="j"></text><path class="k" d="M10.02 0h21v2.171h-21z"/><text x="10.02" y="1.67" class="i">Add configuration mod</text><path class="n" d="M31.062 0h1v2.171h-1z"/><text x="31.062" y="1.67" class="o">│</text><path class="n" d="M32.064 0h67v2.171h-67z"/><text x="32.064" y="1.67" class="r"></text><path class="n" d="M99.198 0h1v2.171h-1z"/><text x="99.198" y="1.67" class="o">│</text><path class="k" d="M100.2 0h30v2.171h-30z"/><text x="100.2" y="1.67" class="j"></text></symbol><symbol id="37"><path class="f" d="M0 0h2v2.171H0z"/><text y="1.67" class="g"></text><path class="k" d="M2.004 0h7v2.171h-7z"/><text x="2.004" y="1.67" class="v">01fafa1</text><path class="k" d="M9.018 0h1v2.171h-1z"/><text x="9.018" y="1.67" class="j"></text><path class="k" d="M10.02 0h21v2.171h-21z"/><text x="10.02" y="1.67" class="i">Initial project setup</text><path class="n" d="M31.062 0h1v2.171h-1z"/><text x="31.062" y="1.67" class="o">│</text><path class="n" d="M32.064 0h18v2.171h-18z"/><text x="32.064" y="1.67" class="l">Essential commands</text><path class="n" d="M50.1 0h49v2.171h-49z"/><text x="50.1" y="1.67" class="r"></text><path class="n" d="M99.198 0h1v2.171h-1z"/><text x="99.198" y="1.67" class="o">│</text><path class="k" d="M100.2 0h30v2.171h-30z"/><text x="100.2" y="1.67" class="j"></text></symbol><symbol id="38"><path class="f" d="M0 0h2v2.171H0z"/><text y="1.67" class="g"></text><path class="k" d="M2.004 0h29v2.171h-29z"/><text x="2.004" y="1.67" class="j"></text><path class="n" d="M31.062 0h1v2.171h-1z"/><text x="31.062" y="1.67" class="o">│</text><path class="n" d="M32.064 0h1v2.171h-1z"/><text x="32.064" y="1.67" class="r"></text><path class="n" d="M33.066 0h2v2.171h-2z"/><text x="33.066" y="1.67" class="t">gr</text><path class="n" d="M35.07 0h21v2.171h-21z"/><text x="35.07" y="1.67" class="r">Refresh</text><path class="n" d="M56.112 0h1v2.171h-1z"/><text x="56.112" y="1.67" class="t">$</text><path class="n" d="M57.114 0h42v2.171h-42z"/><text x="57.114" y="1.67" class="r">Git command history</text><path class="n" d="M99.198 0h1v2.171h-1z"/><text x="99.198" y="1.67" class="o">│</text><path class="k" d="M100.2 0h30v2.171h-30z"/><text x="100.2" y="1.67" class="j"></text></symbol><symbol id="39"><path class="f" d="M0 0h2v2.171H0z"/><text y="1.67" class="g"></text><path class="k" d="M2.004 0h16v2.171h-16z"/><text x="2.004" y="1.67" class="i">Press ? for help</text><path class="k" d="M18.036 0h13v2.171h-13z"/><text x="18.036" y="1.67" class="j"></text><path class="n" d="M31.062 0h1v2.171h-1z"/><text x="31.062" y="1.67" class="o">│</text><path class="n" d="M32.064 0h1v2.171h-1z"/><text x="32.064" y="1.67" class="r"></text><path class="n" d="M33.066 0h2v2.171h-2z"/><text x="33.066" y="1.67" class="t">ys</text><path class="n" d="M35.07 0h21v2.171h-21z"/><text x="35.07" y="1.67" class="r">Yank section value</text><path class="n" d="M56.112 0h1v2.171h-1z"/><text x="56.112" y="1.67" class="t">q</text><path class="n" d="M57.114 0h42v2.171h-42z"/><text x="57.114" y="1.67" class="r">Close buffer</text><path class="n" d="M99.198 0h1v2.171h-1z"/><text x="99.198" y="1.67" class="o">│</text><path class="k" d="M100.2 0h30v2.171h-30z"/><text x="100.2" y="1.67" class="j"></text></symbol><symbol id="40"><path class="k" d="M0 0h31v2.171H0z"/><text y="1.67" class="w">~</text><path class="n" d="M31.062 0h1v2.171h-1z"/><text x="31.062" y="1.67" class="o">│</text><path class="n" d="M32.064 0h1v2.171h-1z"/><text x="32.064" y="1.67" class="r"></text><path class="n" d="M33.066 0h1v2.171h-1z"/><text x="33.066" y="1.67" class="t">?</text><path class="n" d="M34.068 0h65v2.171h-65z"/><text x="34.068" y="1.67" class="r">This help</text><path class="n" d="M99.198 0h1v2.171h-1z"/><text x="99.198" y="1.67" class="o">│</text><path class="k" d="M100.2 0h30v2.171h-30z"/><text x="100.2" y="1.67" class="w"></text></symbol><symbol id="a"><path fill="transparent" d="M0 0h130v42H0z"/></symbol></defs><path class="a" d="M0 0h130v91.182H0z"/><svg width="780"><svg><use xlink:href="#a"/><use xlink:href="#1"/><use xlink:href="#2" y="2.171"/><use xlink:href="#3" y="4.342"/><use xlink:href="#4" y="6.513"/><use xlink:href="#5" y="8.684"/><use xlink:href="#6" y="10.855"/><use xlink:href="#7" y="13.026"/><use xlink:href="#8" y="15.197"/><use xlink:href="#3" y="17.368"/><use xlink:href="#9" y="19.539"/><use xlink:href="#10" y="21.71"/><use xlink:href="#11" y="23.881"/><use xlink:href="#12" y="26.052"/><use xlink:href="#13" y="28.223"/><use xlink:href="#14" y="30.394"/><use xlink:href="#15" y="32.565"/><use xlink:href="#16" y="34.736"/><use xlink:href="#17" y="36.907"/><use xlink:href="#18" y="39.078"/><use xlink:href="#19" y="41.249"/><use xlink:href="#20" y="43.42"/><path class="f" d="M0 45.591h2v2.171H0z"/><text y="47.261" class="i">v</text><path class="k" d="M2.004 45.591h18v2.171h-18z"/><text x="2.004" y="47.261" class="l">Recent commits (8)</text><path class="k" d="M20.04 45.591h11v2.171h-11z"/><text x="20.04" y="47.261" class="j"></text><path class="n" d="M31.062 45.591h1v2.171h-1z"/><text x="31.062" y="47.261" class="o">│</text><path class="n" d="M32.064 45.591h1v2.171h-1z"/><text x="32.064" y="47.261" class="r"></text><path class="n" d="M33.066 45.591h1v2.171h-1z"/><text x="33.066" y="47.261" class="t">S</text><path class="n" d="M34.068 45.591h17v2.171h-17z"/><text x="34.068" y="47.261" class="r">Stage all</text><path class="n" d="M51.102 45.591h1v2.171h-1z"/><text x="51.102" y="47.261" class="t">x</text><path class="n" d="M52.104 45.591h17v2.171h-17z"/><text x="52.104" y="47.261" class="r">Discard</text><path class="k" d="M69.138 45.591h61v2.171h-61z"/><text x="69.138" y="47.261" class="j"></text><path class="f" d="M0 47.762h2v2.171H0z"/><text y="49.432" class="g"></text><path class="k" d="M2.004 47.762h7v2.171h-7z"/><text x="2.004" y="49.432" class="v">bd2dbcb</text><path class="k" d="M9.018 47.762h1v2.171h-1z"/><text x="9.018" y="49.432" class="j"></text><path class="k" d="M10.02 47.762h28v2.171h-28z"/><text x="10.02" y="49.432" class="i">Update App component on main</text><path class="k" d="M38.076 47.762h92v2.171h-92z"/><text x="38.076" y="49.432" class="j"></text><path class="f" d="M0 49.933h2v2.171H0z"/><text y="51.603" class="g"></text><path class="k" d="M2.004 49.933h7v2.171h-7z"/><text x="2.004" y="51.603" class="v">d93b93f</text><path class="k" d="M9.018 49.933h1v2.171h-1z"/><text x="9.018" y="51.603" class="j"></text><path class="k" d="M10.02 49.933h31v2.171h-31z"/><text x="10.02" y="51.603" class="i">Add shared library as submodule</text><path class="k" d="M41.082 49.933h89v2.171h-89z"/><text x="41.082" y="51.603" class="j"></text><path class="f" d="M0 52.104h2v2.171H0z"/><text y="53.774" class="g"></text><path class="k" d="M2.004 52.104h7v2.171h-7z"/><text x="2.004" y="53.774" class="v">600847b</text><path class="k" d="M9.018 52.104h1v2.171h-1z"/><text x="9.018" y="53.774" class="j"></text><path class="k" d="M10.02 52.104h35v2.171h-35z"/><text x="10.02" y="53.774" class="i">Add component tests and test runner</text><path class="k" d="M45.09 52.104h85v2.171h-85z"/><text x="45.09" y="53.774" class="j"></text><path class="f" d="M0 54.275h2v2.171H0z"/><text y="55.945" class="g"></text><path class="k" d="M2.004 54.275h7v2.171h-7z"/><text x="2.004" y="55.945" class="v">37cf2c5</text><path class="k" d="M9.018 54.275h1v2.171h-1z"/><text x="9.018" y="55.945" class="j"></text><path class="k" d="M10.02 54.275h26v2.171h-26z"/><text x="10.02" y="55.945" class="i">Add Python utility scripts</text><path class="k" d="M36.072 54.275h94v2.171h-94z"/><text x="36.072" y="55.945" class="j"></text><use xlink:href="#21" y="56.446"/><use xlink:href="#22" y="58.617"/><use xlink:href="#23" y="60.788"/><use xlink:href="#24" y="62.959"/><use xlink:href="#3" y="65.13"/><use xlink:href="#25" y="67.301"/><use xlink:href="#26" y="69.472"/><use xlink:href="#26" y="71.643"/><use xlink:href="#26" y="73.814"/><use xlink:href="#26" y="75.985"/><use xlink:href="#26" y="78.156"/><use xlink:href="#26" y="80.327"/><use xlink:href="#26" y="82.498"/><use xlink:href="#26" y="84.669"/><use xlink:href="#27" y="86.84"/><use xlink:href="#28" y="89.011"/></svg><svg x="130"><use xlink:href="#a"/><use xlink:href="#1"/><use xlink:href="#2" y="2.171"/><use xlink:href="#3" y="4.342"/><use xlink:href="#4" y="6.513"/><use xlink:href="#5" y="8.684"/><use xlink:href="#6" y="10.855"/><use xlink:href="#7" y="13.026"/><use xlink:href="#8" y="15.197"/><use xlink:href="#3" y="17.368"/><use xlink:href="#9" y="19.539"/><use xlink:href="#10" y="21.71"/><use xlink:href="#11" y="23.881"/><use xlink:href="#12" y="26.052"/><use xlink:href="#13" y="28.223"/><use xlink:href="#14" y="30.394"/><use xlink:href="#15" y="32.565"/><use xlink:href="#16" y="34.736"/><use xlink:href="#17" y="36.907"/><use xlink:href="#18" y="39.078"/><use xlink:href="#19" y="41.249"/><use xlink:href="#20" y="43.42"/><use xlink:href="#29" y="45.591"/><use xlink:href="#30" y="47.762"/><use xlink:href="#31" y="49.933"/><use xlink:href="#32" y="52.104"/><path class="f" d="M0 54.275h2v2.171H0z"/><text y="55.945" class="g"></text><path class="k" d="M2.004 54.275h7v2.171h-7z"/><text x="2.004" y="55.945" class="v">37cf2c5</text><path class="k" d="M9.018 54.275h1v2.171h-1z"/><text x="9.018" y="55.945" class="j"></text><path class="k" d="M10.02 54.275h21v2.171h-21z"/><text x="10.02" y="55.945" class="i">Add Python utility sc</text><path class="n" d="M31.062 54.275h1v2.171h-1z"/><text x="31.062" y="55.945" class="o">│</text><path class="n" d="M32.064 54.275h1v2.171h-1z"/><text x="32.064" y="55.945" class="r"></text><path class="n" d="M33.066 54.275h2v2.171h-2z"/><text x="33.066" y="55.945" class="t">gk</text><path class="k" d="M35.07 54.275h1v2.171h-1z"/><text x="35.07" y="55.945" class="i">s</text><path class="k" d="M36.072 54.275h94v2.171h-94z"/><text x="36.072" y="55.945" class="j"></text><use xlink:href="#21" y="56.446"/><use xlink:href="#22" y="58.617"/><use xlink:href="#23" y="60.788"/><use xlink:href="#24" y="62.959"/><use xlink:href="#3" y="65.13"/><use xlink:href="#25" y="67.301"/><use xlink:href="#26" y="69.472"/><use xlink:href="#26" y="71.643"/><use xlink:href="#26" y="73.814"/><use xlink:href="#26" y="75.985"/><use xlink:href="#26" y="78.156"/><use xlink:href="#26" y="80.327"/><use xlink:href="#26" y="82.498"/><use xlink:href="#26" y="84.669"/><use xlink:href="#27" y="86.84"/><use xlink:href="#28" y="89.011"/></svg><svg x="260"><use xlink:href="#a"/><use xlink:href="#1"/><use xlink:href="#2" y="2.171"/><use xlink:href="#3" y="4.342"/><use xlink:href="#4" y="6.513"/><use xlink:href="#5" y="8.684"/><use xlink:href="#6" y="10.855"/><use xlink:href="#7" y="13.026"/><use xlink:href="#8" y="15.197"/><use xlink:href="#3" y="17.368"/><use xlink:href="#9" y="19.539"/><use xlink:href="#10" y="21.71"/><use xlink:href="#11" y="23.881"/><use xlink:href="#12" y="26.052"/><use xlink:href="#13" y="28.223"/><use xlink:href="#14" y="30.394"/><use xlink:href="#15" y="32.565"/><use xlink:href="#16" y="34.736"/><use xlink:href="#17" y="36.907"/><use xlink:href="#18" y="39.078"/><use xlink:href="#19" y="41.249"/><use xlink:href="#20" y="43.42"/><use xlink:href="#29" y="45.591"/><use xlink:href="#30" y="47.762"/><use xlink:href="#31" y="49.933"/><use xlink:href="#32" y="52.104"/><use xlink:href="#33" y="54.275"/><use xlink:href="#34" y="56.446"/><path class="f" d="M0 58.617h2v2.171H0z"/><text y="60.287" class="g"></text><path class="k" d="M2.004 58.617h7v2.171h-7z"/><text x="2.004" y="60.287" class="v">1a9fb62</text><path class="k" d="M9.018 58.617h1v2.171h-1z"/><text x="9.018" y="60.287" class="j"></text><path class="k" d="M10.02 58.617h21v2.171h-21z"/><text x="10.02" y="60.287" class="i">Add UI components: Bu</text><path class="n" d="M31.062 58.617h1v2.171h-1z"/><text x="31.062" y="60.287" class="o">│</text><path class="n" d="M32.064 58.617h1v2.171h-1z"/><text x="32.064" y="60.287" class="r"></text><path class="n" d="M33.066 58.617h1v2.171h-1z"/><text x="33.066" y="60.287" class="t">4</text><path class="n" d="M34.068 58.617h21v2.171h-21z"/><text x="34.068" y="60.287" class="r">Show all</text><path class="n" d="M55.11 58.617h4v2.171h-4z"/><text x="55.11" y="60.287" class="t">&lt;CR&gt;</text><path class="n" d="M59.118 58.617h18v2.171h-18z"/><text x="59.118" y="60.287" class="r">Visit file</text><path class="n" d="M77.154 58.617h1v2.171h-1z"/><text x="77.154" y="60.287" class="t">e</text><path class="k" d="M78.156 58.617h52v2.171h-52z"/><text x="78.156" y="60.287" class="j"></text><use xlink:href="#23" y="60.788"/><use xlink:href="#24" y="62.959"/><use xlink:href="#3" y="65.13"/><use xlink:href="#25" y="67.301"/><use xlink:href="#26" y="69.472"/><use xlink:href="#26" y="71.643"/><use xlink:href="#26" y="73.814"/><use xlink:href="#26" y="75.985"/><use xlink:href="#26" y="78.156"/><use xlink:href="#26" y="80.327"/><use xlink:href="#26" y="82.498"/><use xlink:href="#26" y="84.669"/><use xlink:href="#27" y="86.84"/><use xlink:href="#28" y="89.011"/></svg><svg x="390"><use xlink:href="#a"/><use xlink:href="#1"/><use xlink:href="#2" y="2.171"/><use xlink:href="#3" y="4.342"/><use xlink:href="#4" y="6.513"/><use xlink:href="#5" y="8.684"/><use xlink:href="#6" y="10.855"/><use xlink:href="#7" y="13.026"/><use xlink:href="#8" y="15.197"/><use xlink:href="#3" y="17.368"/><use xlink:href="#9" y="19.539"/><use xlink:href="#10" y="21.71"/><use xlink:href="#11" y="23.881"/><use xlink:href="#12" y="26.052"/><use xlink:href="#13" y="28.223"/><use xlink:href="#14" y="30.394"/><use xlink:href="#15" y="32.565"/><use xlink:href="#16" y="34.736"/><use xlink:href="#17" y="36.907"/><use xlink:href="#18" y="39.078"/><use xlink:href="#19" y="41.249"/><use xlink:href="#20" y="43.42"/><use xlink:href="#29" y="45.591"/><use xlink:href="#30" y="47.762"/><use xlink:href="#31" y="49.933"/><use xlink:href="#32" y="52.104"/><use xlink:href="#33" y="54.275"/><use xlink:href="#34" y="56.446"/><use xlink:href="#35" y="58.617"/><use xlink:href="#36" y="60.788"/><use xlink:href="#37" y="62.959"/><use xlink:href="#38" y="65.13"/><path class="f" d="M0 67.301h2v2.171H0z"/><text y="68.971" class="g"></text><path class="k" d="M2.004 67.301h16v2.171h-16z"/><text x="2.004" y="68.971" class="i">Press ? for help</text><path class="k" d="M18.036 67.301h13v2.171h-13z"/><text x="18.036" y="68.971" class="j"></text><path class="n" d="M31.062 67.301h1v2.171h-1z"/><text x="31.062" y="68.971" class="o">│</text><path class="n" d="M32.064 67.301h1v2.171h-1z"/><text x="32.064" y="68.971" class="r"></text><path class="n" d="M33.066 67.301h2v2.171h-2z"/><text x="33.066" y="68.971" class="t">ys</text><path class="n" d="M35.07 67.301h21v2.171h-21z"/><text x="35.07" y="68.971" class="r">Yank section value</text><path class="n" d="M56.112 67.301h1v2.171h-1z"/><text x="56.112" y="68.971" class="t">q</text><path class="k" d="M57.114 67.301h73v2.171h-73z"/><text x="57.114" y="68.971" class="j"></text><use xlink:href="#26" y="69.472"/><use xlink:href="#26" y="71.643"/><use xlink:href="#26" y="73.814"/><use xlink:href="#26" y="75.985"/><use xlink:href="#26" y="78.156"/><use xlink:href="#26" y="80.327"/><use xlink:href="#26" y="82.498"/><use xlink:href="#26" y="84.669"/><use xlink:href="#27" y="86.84"/><use xlink:href="#28" y="89.011"/></svg><svg x="520"><use xlink:href="#a"/><use xlink:href="#1"/><use xlink:href="#2" y="2.171"/><use xlink:href="#3" y="4.342"/><use xlink:href="#4" y="6.513"/><use xlink:href="#5" y="8.684"/><use xlink:href="#6" y="10.855"/><use xlink:href="#7" y="13.026"/><use xlink:href="#8" y="15.197"/><use xlink:href="#3" y="17.368"/><use xlink:href="#9" y="19.539"/><use xlink:href="#10" y="21.71"/><use xlink:href="#11" y="23.881"/><use xlink:href="#12" y="26.052"/><use xlink:href="#13" y="28.223"/><use xlink:href="#14" y="30.394"/><use xlink:href="#15" y="32.565"/><use xlink:href="#16" y="34.736"/><use xlink:href="#17" y="36.907"/><use xlink:href="#18" y="39.078"/><use xlink:href="#19" y="41.249"/><use xlink:href="#20" y="43.42"/><use xlink:href="#29" y="45.591"/><use xlink:href="#30" y="47.762"/><use xlink:href="#31" y="49.933"/><use xlink:href="#32" y="52.104"/><use xlink:href="#33" y="54.275"/><use xlink:href="#34" y="56.446"/><use xlink:href="#35" y="58.617"/><use xlink:href="#36" y="60.788"/><use xlink:href="#37" y="62.959"/><use xlink:href="#38" y="65.13"/><use xlink:href="#39" y="67.301"/><use xlink:href="#40" y="69.472"/><path class="k" d="M0 71.643h31v2.171H0z"/><text y="73.313" class="w">~</text><path class="n" d="M31.062 71.643h61v2.171h-61z"/><text x="31.062" y="73.313" class="o">╰────────────────────────────────────────────────────────────</text><path class="k" d="M92.184 71.643h38v2.171h-38z"/><text x="92.184" y="73.313" class="w"></text><use xlink:href="#26" y="73.814"/><use xlink:href="#26" y="75.985"/><use xlink:href="#26" y="78.156"/><use xlink:href="#26" y="80.327"/><use xlink:href="#26" y="82.498"/><use xlink:href="#26" y="84.669"/><use xlink:href="#27" y="86.84"/><use xlink:href="#28" y="89.011"/></svg><svg x="650"><use xlink:href="#a"/><use xlink:href="#1"/><use xlink:href="#2" y="2.171"/><use xlink:href="#3" y="4.342"/><use xlink:href="#4" y="6.513"/><use xlink:href="#5" y="8.684"/><use xlink:href="#6" y="10.855"/><use xlink:href="#7" y="13.026"/><use xlink:href="#8" y="15.197"/><use xlink:href="#3" y="17.368"/><use xlink:href="#9" y="19.539"/><use xlink:href="#10" y="21.71"/><use xlink:href="#11" y="23.881"/><use xlink:href="#12" y="26.052"/><use xlink:href="#13" y="28.223"/><use xlink:href="#14" y="30.394"/><use xlink:href="#15" y="32.565"/><use xlink:href="#16" y="34.736"/><use xlink:href="#17" y="36.907"/><use xlink:href="#18" y="39.078"/><use xlink:href="#19" y="41.249"/><use xlink:href="#20" y="43.42"/><use xlink:href="#29" y="45.591"/><use xlink:href="#30" y="47.762"/><use xlink:href="#31" y="49.933"/><use xlink:href="#32" y="52.104"/><use xlink:href="#33" y="54.275"/><use xlink:href="#34" y="56.446"/><use xlink:href="#35" y="58.617"/><use xlink:href="#36" y="60.788"/><use xlink:href="#37" y="62.959"/><use xlink:href="#38" y="65.13"/><use xlink:href="#39" y="67.301"/><use xlink:href="#40" y="69.472"/><path class="k" d="M0 71.643h31v2.171H0z"/><text y="73.313" class="w">~</text><path class="n" d="M31.062 71.643h69v2.171h-69z"/><text x="31.062" y="73.313" class="o">╰───────────────────────────────────────────────────────────────────╯</text><path class="k" d="M100.2 71.643h30v2.171h-30z"/><text x="100.2" y="73.313" class="w"></text><use xlink:href="#26" y="73.814"/><use xlink:href="#26" y="75.985"/><use xlink:href="#26" y="78.156"/><use xlink:href="#26" y="80.327"/><use xlink:href="#26" y="82.498"/><use xlink:href="#26" y="84.669"/><use xlink:href="#27" y="86.84"/><use xlink:href="#28" y="89.011"/></svg></svg></g></svg></svg>